<svg xmlns="http://www.w3.org/2000/svg" width="69" height="48" viewBox="0 0 69 48"><defs><mask id="6y7hb" width="2" height="2" x="-1" y="-1"><path fill="#fff" d="M2 1h65v44H2z"/><path d="M62.808 27.285h-18.58C48.1 21.179 54.723 15.33 66.053 13.35c0 0 .2 6.676-3.245 13.935zm-36.27 0c-1.085-7.457.217-16.638 7.8-26.283 0 0 10.526 10.714 8.177 26.283zM8.92 32.092a29.718 29.718 0 0 1-1.571-2.404H26.04c.42.808.798 1.612 1.136 2.404zM2.833 13.35c11.329 1.98 17.952 7.83 21.824 13.935H6.077C2.634 20.026 2.834 13.35 2.834 13.35zm26.592 25.953c.645 3.121.676 5.221.676 5.221-5.613-1.028-10.07-2.895-13.61-5.221zm8.818 0a47.236 47.236 0 0 1-3.8 5.695s-1.87-2.091-3.829-5.695zm14.152 0c-3.541 2.326-7.997 4.193-13.61 5.221 0 0 .03-2.1.675-5.221zM40.78 34.496h17.236c-.745.824-1.559 1.629-2.448 2.403H40.038c.21-.77.455-1.573.743-2.403zm20.755-4.808a29.755 29.755 0 0 1-1.57 2.404H41.707a34.65 34.65 0 0 1 1.137-2.404zm-19.481 0c-.183.79-.404 1.592-.657 2.404H27.604a34.607 34.607 0 0 1-.626-2.404zM39.496 36.9H29.414a37.76 37.76 0 0 1-1.001-2.403h12.134a37.488 37.488 0 0 1-1.05 2.403zm-10.648 0H13.316a28.632 28.632 0 0 1-2.448-2.403h17.237c.287.83.532 1.634.743 2.403z"/></mask><filter id="6y7ha" width="85" height="65" x="-8" y="-9" filterUnits="userSpaceOnUse"><feOffset dy="1" in="SourceGraphic" result="FeOffset1152Out"/><feGaussianBlur in="FeOffset1152Out" result="FeGaussianBlur1153Out" stdDeviation="0 0"/></filter><filter id="6y7hc" width="200%" height="200%" x="-50%" y="-50%"><feGaussianBlur in="SourceGraphic" result="FeGaussianBlur1158Out" stdDeviation="1 1"/></filter><mask id="6y7hd"><path fill="#fff" d="M62.808 27.285h-18.58C48.1 21.179 54.723 15.33 66.053 13.35c0 0 .2 6.676-3.245 13.935zm-36.27 0c-1.085-7.457.217-16.638 7.8-26.283 0 0 10.526 10.714 8.177 26.283zM8.92 32.092a29.718 29.718 0 0 1-1.571-2.404H26.04c.42.808.798 1.612 1.136 2.404zM2.833 13.35c11.329 1.98 17.952 7.83 21.824 13.935H6.077C2.634 20.026 2.834 13.35 2.834 13.35zm26.592 25.953c.645 3.121.676 5.221.676 5.221-5.613-1.028-10.07-2.895-13.61-5.221zm8.818 0a47.236 47.236 0 0 1-3.8 5.695s-1.87-2.091-3.829-5.695zm14.152 0c-3.541 2.326-7.997 4.193-13.61 5.221 0 0 .03-2.1.675-5.221zM40.78 34.496h17.236c-.745.824-1.559 1.629-2.448 2.403H40.038c.21-.77.455-1.573.743-2.403zm20.755-4.808a29.755 29.755 0 0 1-1.57 2.404H41.707a34.65 34.65 0 0 1 1.137-2.404zm-19.481 0c-.183.79-.404 1.592-.657 2.404H27.604a34.607 34.607 0 0 1-.626-2.404zM39.496 36.9H29.414a37.76 37.76 0 0 1-1.001-2.403h12.134a37.488 37.488 0 0 1-1.05 2.403zm-10.648 0H13.316a28.632 28.632 0 0 1-2.448-2.403h17.237c.287.83.532 1.634.743 2.403z"/></mask></defs><g><g><g filter="url(#6y7ha)"><path fill="none" d="M62.808 27.285h-18.58C48.1 21.179 54.723 15.33 66.053 13.35c0 0 .2 6.676-3.245 13.935zm-36.27 0c-1.085-7.457.217-16.638 7.8-26.283 0 0 10.526 10.714 8.177 26.283zM8.92 32.092a29.718 29.718 0 0 1-1.571-2.404H26.04c.42.808.798 1.612 1.136 2.404zM2.833 13.35c11.329 1.98 17.952 7.83 21.824 13.935H6.077C2.634 20.026 2.834 13.35 2.834 13.35zm26.592 25.953c.645 3.121.676 5.221.676 5.221-5.613-1.028-10.07-2.895-13.61-5.221zm8.818 0a47.236 47.236 0 0 1-3.8 5.695s-1.87-2.091-3.829-5.695zm14.152 0c-3.541 2.326-7.997 4.193-13.61 5.221 0 0 .03-2.1.675-5.221zM40.78 34.496h17.236c-.745.824-1.559 1.629-2.448 2.403H40.038c.21-.77.455-1.573.743-2.403zm20.755-4.808a29.755 29.755 0 0 1-1.57 2.404H41.707a34.65 34.65 0 0 1 1.137-2.404zm-19.481 0c-.183.79-.404 1.592-.657 2.404H27.604a34.607 34.607 0 0 1-.626-2.404zM39.496 36.9H29.414a37.76 37.76 0 0 1-1.001-2.403h12.134a37.488 37.488 0 0 1-1.05 2.403zm-10.648 0H13.316a28.632 28.632 0 0 1-2.448-2.403h17.237c.287.83.532 1.634.743 2.403z" mask="url(&quot;#6y7hb&quot;)"/><path fill="#fff" d="M62.808 27.285h-18.58C48.1 21.179 54.723 15.33 66.053 13.35c0 0 .2 6.676-3.245 13.935zm-36.27 0c-1.085-7.457.217-16.638 7.8-26.283 0 0 10.526 10.714 8.177 26.283zM8.92 32.092a29.718 29.718 0 0 1-1.571-2.404H26.04c.42.808.798 1.612 1.136 2.404zM2.833 13.35c11.329 1.98 17.952 7.83 21.824 13.935H6.077C2.634 20.026 2.834 13.35 2.834 13.35zm26.592 25.953c.645 3.121.676 5.221.676 5.221-5.613-1.028-10.07-2.895-13.61-5.221zm8.818 0a47.236 47.236 0 0 1-3.8 5.695s-1.87-2.091-3.829-5.695zm14.152 0c-3.541 2.326-7.997 4.193-13.61 5.221 0 0 .03-2.1.675-5.221zM40.78 34.496h17.236c-.745.824-1.559 1.629-2.448 2.403H40.038c.21-.77.455-1.573.743-2.403zm20.755-4.808a29.755 29.755 0 0 1-1.57 2.404H41.707a34.65 34.65 0 0 1 1.137-2.404zm-19.481 0c-.183.79-.404 1.592-.657 2.404H27.604a34.607 34.607 0 0 1-.626-2.404zM39.496 36.9H29.414a37.76 37.76 0 0 1-1.001-2.403h12.134a37.488 37.488 0 0 1-1.05 2.403zm-10.648 0H13.316a28.632 28.632 0 0 1-2.448-2.403h17.237c.287.83.532 1.634.743 2.403z"/></g><path fill="#5a5a5a" d="M62.808 27.285h-18.58C48.1 21.179 54.723 15.33 66.053 13.35c0 0 .2 6.676-3.245 13.935zm-36.27 0c-1.085-7.457.217-16.638 7.8-26.283 0 0 10.526 10.714 8.177 26.283zM8.92 32.092a29.718 29.718 0 0 1-1.571-2.404H26.04c.42.808.798 1.612 1.136 2.404zM2.833 13.35c11.329 1.98 17.952 7.83 21.824 13.935H6.077C2.634 20.026 2.834 13.35 2.834 13.35zm26.592 25.953c.645 3.121.676 5.221.676 5.221-5.613-1.028-10.07-2.895-13.61-5.221zm8.818 0a47.236 47.236 0 0 1-3.8 5.695s-1.87-2.091-3.829-5.695zm14.152 0c-3.541 2.326-7.997 4.193-13.61 5.221 0 0 .03-2.1.675-5.221zM40.78 34.496h17.236c-.745.824-1.559 1.629-2.448 2.403H40.038c.21-.77.455-1.573.743-2.403zm20.755-4.808a29.755 29.755 0 0 1-1.57 2.404H41.707a34.65 34.65 0 0 1 1.137-2.404zm-19.481 0c-.183.79-.404 1.592-.657 2.404H27.604a34.607 34.607 0 0 1-.626-2.404zM39.496 36.9H29.414a37.76 37.76 0 0 1-1.001-2.403h12.134a37.488 37.488 0 0 1-1.05 2.403zm-10.648 0H13.316a28.632 28.632 0 0 1-2.448-2.403h17.237c.287.83.532 1.634.743 2.403z"/><path fill-opacity=".25" d="M0 48V-2h69v50zm66.053-33.65c-11.33 1.98-17.953 7.83-21.825 13.935h18.58c3.445-7.259 3.245-13.935 3.245-13.935zM42.515 28.285c2.349-15.57-8.178-26.283-8.178-26.283-7.582 9.645-8.884 18.826-7.8 26.283zm-15.338 4.807a34.656 34.656 0 0 0-1.136-2.404H7.349c.472.805.995 1.61 1.571 2.404zm-21.1-4.807h18.58C20.785 22.179 14.162 16.33 2.833 14.35c0 0-.2 6.676 3.245 13.935zM16.49 40.303c3.541 2.326 7.998 4.193 13.611 5.221 0 0-.031-2.1-.676-5.221zm14.124 0c1.958 3.604 3.829 5.695 3.829 5.695a47.236 47.236 0 0 0 3.8-5.695zm8.846 0c-.645 3.121-.676 5.221-.676 5.221 5.614-1.028 10.07-2.895 13.61-5.221zm.578-2.404h15.531a28.632 28.632 0 0 0 2.448-2.403H40.781c-.288.83-.533 1.634-.743 2.403zm2.807-7.21a34.65 34.65 0 0 0-1.137 2.403h18.257a29.755 29.755 0 0 0 1.571-2.404zm-15.867 0c.184.827.395 1.628.626 2.403h13.794c.253-.812.474-1.613.657-2.404zm13.57 4.807H28.412a37.76 37.76 0 0 0 1 2.403h10.083c.387-.81.738-1.61 1.051-2.403zm-12.443 0H10.868c.745.824 1.56 1.629 2.448 2.403h15.532c-.211-.77-.456-1.573-.743-2.403z" filter="url(#6y7hc)" mask="url(&quot;#6y7hd&quot;)"/></g></g></svg>