<svg xmlns="http://www.w3.org/2000/svg" width="79" height="46" viewBox="0 0 79 46"><defs>
<mask id="mjiwb" width="2" height="2" x="-1" y="-1">
<path fill="#fff" d="M2 1h75v42H2z"/>
<path d="M76.968 22.224l-34.361 9.832L34.652 16c3.84-.636 7.442-.458 10.607.125l3.362 6.205 11.682-3.133s-14.17-9.906-31.142-5.061l9.456 19.068-34.414 9.84s-9.993-21.815 12.56-31.066l-4.358-8.857L23.1 1.913l3.607 7.278c.218-.037.41-.089.628-.123 37.171-6.286 49.632 13.156 49.632 13.156zM24.98 28.673l-5.132-10.43c-9.65 6.228-6.334 13.5-6.334 13.5z"/></mask><filter id="mjiwa" width="95" height="63" x="-8" y="-9" filterUnits="userSpaceOnUse"><feOffset dy="1" in="SourceGraphic" result="FeOffset1127Out"/><feGaussianBlur in="FeOffset1127Out" result="FeGaussianBlur1128Out" stdDeviation="0 0"/></filter><filter id="mjiwc" width="200%" height="200%" x="-50%" y="-50%"><feGaussianBlur in="SourceGraphic" result="FeGaussianBlur1133Out" stdDeviation="1 1"/></filter><mask id="mjiwd">
<path fill="#fff" d="M76.968 22.224l-34.361 9.832L34.652 16c3.84-.636 7.442-.458 10.607.125l3.362 6.205 11.682-3.133s-14.17-9.906-31.142-5.061l9.456 19.068-34.414 9.84s-9.993-21.815 12.56-31.066l-4.358-8.857L23.1 1.913l3.607 7.278c.218-.037.41-.089.628-.123 37.171-6.286 49.632 13.156 49.632 13.156zM24.98 28.673l-5.132-10.43c-9.65 6.228-6.334 13.5-6.334 13.5z"/></mask></defs><g><g><g filter="url(#mjiwa)">
<path fill="none" d="M76.968 22.224l-34.361 9.832L34.652 16c3.84-.636 7.442-.458 10.607.125l3.362 6.205 11.682-3.133s-14.17-9.906-31.142-5.061l9.456 19.068-34.414 9.84s-9.993-21.815 12.56-31.066l-4.358-8.857L23.1 1.913l3.607 7.278c.218-.037.41-.089.628-.123 37.171-6.286 49.632 13.156 49.632 13.156zM24.98 28.673l-5.132-10.43c-9.65 6.228-6.334 13.5-6.334 13.5z" mask="url(&quot;#mjiwb&quot;)"/><path fill="#fff" d="M76.968 22.224l-34.361 9.832L34.652 16c3.84-.636 7.442-.458 10.607.125l3.362 6.205 11.682-3.133s-14.17-9.906-31.142-5.061l9.456 19.068-34.414 9.84s-9.993-21.815 12.56-31.066l-4.358-8.857L23.1 1.913l3.607 7.278c.218-.037.41-.089.628-.123 37.171-6.286 49.632 13.156 49.632 13.156zM24.98 28.673l-5.132-10.43c-9.65 6.228-6.334 13.5-6.334 13.5z"/></g>
<path fill="#5a5a5a" d="M76.968 22.224l-34.361 9.832L34.652 16c3.84-.636 7.442-.458 10.607.125l3.362 6.205 11.682-3.133s-14.17-9.906-31.142-5.061l9.456 19.068-34.414 9.84s-9.993-21.815 12.56-31.066l-4.358-8.857L23.1 1.913l3.607 7.278c.218-.037.41-.089.628-.123 37.171-6.286 49.632 13.156 49.632 13.156zM24.98 28.673l-5.132-10.43c-9.65 6.228-6.334 13.5-6.334 13.5z"/>
<path fill-opacity=".25" d="M0 46V-2h79v48zm76.968-22.776S64.508 3.782 27.336 10.068c-.218.034-.41.086-.628.123L23.1 2.913 12.405 4.121l4.358 8.857C-5.79 22.229 4.203 44.043 4.203 44.043l34.414-9.84-9.456-19.067c16.971-4.845 31.142 5.06 31.142 5.06L48.621 23.33l-3.362-6.205c-3.165-.583-6.767-.76-10.607-.125l7.955 16.056 34.361-9.832zm-63.454 9.52S10.2 25.47 19.848 19.242l5.132 10.43z" filter="url(#mjiwc)" mask="url(&quot;#mjiwd&quot;)"/></g></g></svg>