<svg xmlns="http://www.w3.org/2000/svg" width="30" height="30" viewBox="0 0 30 30"><g><g><path fill="#ef6499" d="M15.202 23.207c-4.247 0-7.702-3.654-7.702-8.01 0-4.357 3.455-7.834 7.702-7.834 4.248 0 7.489 3.477 7.489 7.834 0 4.356-3.241 8.01-7.489 8.01zm6.346-6.93c-.225-.072-1.886-.626-3.948-.288.86 2.426 1.21 4.401 1.278 4.812 1.476-1.024 2.377-2.645 2.67-4.523zm-3.776 5.141c-.098-.592-.48-2.655-1.403-5.117l-.044.015c-3.71 1.326-5.043 3.966-5.161 4.214 1.116.892 2.517 1.623 4.038 1.623.912 0 1.78-.39 2.57-.735zm-7.457-1.7c.149-.261 1.954-3.327 5.347-4.452a6.98 6.98 0 0 1 .26-.08 22.807 22.807 0 0 0-.534-1.146c-3.285 1.009-6.474.967-6.761.96a6.819 6.819 0 0 0 1.688 4.718zm-1.553-5.893c.294.004 3.005.016 6.083-.822-1.09-1.988-2.33-3.725-2.504-3.969-1.84.89-3.152 2.697-3.579 4.79zm4.899-5.178a36.11 36.11 0 0 1 2.454 3.95c2.34-.9 3.395-2.33 3.513-2.504a6.624 6.624 0 0 0-4.426-1.7c-.53 0-1.047.131-1.541.254zm6.698 2.227c-.138.192-1.305 1.708-3.738 2.726a21.276 21.276 0 0 1 .579 1.326c2.189-.282 4.278.17 4.495.217-.015-1.592-.42-3.121-1.336-4.27zM.188 15c0 8.284 6.673 15 14.906 15C23.326 30 30 23.284 30 15c0-8.284-6.674-15-14.906-15C6.86 0 .188 6.716.188 15z"/></g></g></svg>