<svg xmlns="http://www.w3.org/2000/svg" width="82" height="44" viewBox="0 0 82 44"><defs><mask id="ild8b" width="2" height="2" x="-1" y="-1"><path fill="#fff" d="M2 1h78v40H2z"/><path d="M70.088 41.043l-4.508-7.78H51.108l5.117-8.369h3.932l-4.372-7.492-14.27 23.624H2.149l9.253-15.254H4.538l5.084-8.387h29.487l-5.1 8.404H21.094l-3.932 6.884H36.72L55.65 1.827l24.352 39.216zM13.842 10.517l5.372-8.673 31.317-.017-5.406 8.69z"/></mask><filter id="ild8a" width="98" height="61" x="-8" y="-9" filterUnits="userSpaceOnUse"><feOffset dy="1" in="SourceGraphic" result="FeOffset1077Out"/><feGaussianBlur in="FeOffset1077Out" result="FeGaussianBlur1078Out" stdDeviation="0 0"/></filter><filter id="ild8c" width="200%" height="200%" x="-50%" y="-50%"><feGaussianBlur in="SourceGraphic" result="FeGaussianBlur1083Out" stdDeviation="1 1"/></filter><mask id="ild8d"><path fill="#fff" d="M70.088 41.043l-4.508-7.78H51.108l5.117-8.369h3.932l-4.372-7.492-14.27 23.624H2.149l9.253-15.254H4.538l5.084-8.387h29.487l-5.1 8.404H21.094l-3.932 6.884H36.72L55.65 1.827l24.352 39.216zM13.842 10.517l5.372-8.673 31.317-.017-5.406 8.69z"/></mask></defs><g><g><g filter="url(#ild8a)"><path fill="none" d="M70.088 41.043l-4.508-7.78H51.108l5.117-8.369h3.932l-4.372-7.492-14.27 23.624H2.149l9.253-15.254H4.538l5.084-8.387h29.487l-5.1 8.404H21.094l-3.932 6.884H36.72L55.65 1.827l24.352 39.216zM13.842 10.517l5.372-8.673 31.317-.017-5.406 8.69z" mask="url(&quot;#ild8b&quot;)"/><path fill="#fff" d="M70.088 41.043l-4.508-7.78H51.108l5.117-8.369h3.932l-4.372-7.492-14.27 23.624H2.149l9.253-15.254H4.538l5.084-8.387h29.487l-5.1 8.404H21.094l-3.932 6.884H36.72L55.65 1.827l24.352 39.216zM13.842 10.517l5.372-8.673 31.317-.017-5.406 8.69z"/></g><path fill="#5a5a5a" d="M70.088 41.043l-4.508-7.78H51.108l5.117-8.369h3.932l-4.372-7.492-14.27 23.624H2.149l9.253-15.254H4.538l5.084-8.387h29.487l-5.1 8.404H21.094l-3.932 6.884H36.72L55.65 1.827l24.352 39.216zM13.842 10.517l5.372-8.673 31.317-.017-5.406 8.69z"/><path fill-opacity=".25" d="M0 44V-2h82v46zm80.002-1.957L55.649 2.827 36.72 33.673H17.164l3.932-6.884h12.913l5.101-8.404H9.622l-5.084 8.387H11.4L2.148 42.026h39.368l14.269-23.624 4.372 7.492h-3.932l-5.118 8.37H65.58l4.508 7.779zM45.125 11.517l5.406-8.69-31.317.017-5.372 8.673z" filter="url(#ild8c)" mask="url(&quot;#ild8d&quot;)"/></g></g></svg>