<svg xmlns="http://www.w3.org/2000/svg" width="99" height="45" viewBox="0 0 99 45"><defs><mask id="dnslb" width="2" height="2" x="-1" y="-1"><path fill="#fff" d="M2 1h95v41H2z"/><path d="M96.6 1.828L83.896 25.823v12.701h-9.53V25.823L71.41 19.85v6.84c0 1.628.22 3.257.33 4.885h-6.793l-.327-3.474h-.11c-1.534 2.604-3.617 3.908-6.791 3.908-.658 0-1.206 0-1.752-.11-.22 4.778-1.206 10.098-7.23 10.098-2.847 0-4.818-.868-6.134-3.365h-.109v2.824h-6.9v-5.322c-1.094.544-2.41.978-3.833 1.302-2.737.544-6.135.98-10.078.98-17.084 0-19.276-4.995-19.276-12.16 0-6.19 1.862-11.509 19.276-11.509 4.162 0 7.449.325 9.97.868 1.53.327 2.847.651 3.94 1.194V4.544h7.228v13.569h.11c1.534-2.17 3.288-2.931 5.916-2.931 2.19 0 3.614.652 4.71 1.737 2.518-1.954 6.572-2.063 10.734-1.954v-2.062c0-2.172-.33-3.8-2.958-3.8-2.629 0-2.74 1.954-2.74 4.017h-7.227c0-3.15.985-5.212 2.739-6.297 1.641-1.304 4.051-1.738 6.788-1.738 1.206 0 2.302.11 3.287.217L62.43 1.828h10.404l6.79 15.526 7.339-15.526zm-80.83 22.15h12.048c0-2.173.218-5.322-6.135-5.322-6.022 0-5.913 3.476-5.913 5.321zm19.823 6.187V27.56H15.77c0 2.713.11 6.73 5.913 6.73 4.71 0 5.697-2.171 5.697-4.124zm10.188-10.531c-2.96 0-2.96 3.583-2.96 8.685 0 6.514.44 9.228 2.96 9.228 2.629 0 3.066-2.714 3.066-9.228 0-5.102.109-8.685-3.066-8.685zm18.51-.651c-3.616.216-6.353-.11-6.353 4.451 0 1.846.329 4.125 2.737 4.125 4.272 0 3.616-5.754 3.616-8.576z"/></mask><filter id="dnsla" width="115" height="62" x="-8" y="-9" filterUnits="userSpaceOnUse"><feOffset dy="1" in="SourceGraphic" result="FeOffset1102Out"/><feGaussianBlur in="FeOffset1102Out" result="FeGaussianBlur1103Out" stdDeviation="0 0"/></filter><filter id="dnslc" width="200%" height="200%" x="-50%" y="-50%"><feGaussianBlur in="SourceGraphic" result="FeGaussianBlur1108Out" stdDeviation="1 1"/></filter><mask id="dnsld"><path fill="#fff" d="M96.6 1.828L83.896 25.823v12.701h-9.53V25.823L71.41 19.85v6.84c0 1.628.22 3.257.33 4.885h-6.793l-.327-3.474h-.11c-1.534 2.604-3.617 3.908-6.791 3.908-.658 0-1.206 0-1.752-.11-.22 4.778-1.206 10.098-7.23 10.098-2.847 0-4.818-.868-6.134-3.365h-.109v2.824h-6.9v-5.322c-1.094.544-2.41.978-3.833 1.302-2.737.544-6.135.98-10.078.98-17.084 0-19.276-4.995-19.276-12.16 0-6.19 1.862-11.509 19.276-11.509 4.162 0 7.449.325 9.97.868 1.53.327 2.847.651 3.94 1.194V4.544h7.228v13.569h.11c1.534-2.17 3.288-2.931 5.916-2.931 2.19 0 3.614.652 4.71 1.737 2.518-1.954 6.572-2.063 10.734-1.954v-2.062c0-2.172-.33-3.8-2.958-3.8-2.629 0-2.74 1.954-2.74 4.017h-7.227c0-3.15.985-5.212 2.739-6.297 1.641-1.304 4.051-1.738 6.788-1.738 1.206 0 2.302.11 3.287.217L62.43 1.828h10.404l6.79 15.526 7.339-15.526zm-80.83 22.15h12.048c0-2.173.218-5.322-6.135-5.322-6.022 0-5.913 3.476-5.913 5.321zm19.823 6.187V27.56H15.77c0 2.713.11 6.73 5.913 6.73 4.71 0 5.697-2.171 5.697-4.124zm10.188-10.531c-2.96 0-2.96 3.583-2.96 8.685 0 6.514.44 9.228 2.96 9.228 2.629 0 3.066-2.714 3.066-9.228 0-5.102.109-8.685-3.066-8.685zm18.51-.651c-3.616.216-6.353-.11-6.353 4.451 0 1.846.329 4.125 2.737 4.125 4.272 0 3.616-5.754 3.616-8.576z"/></mask></defs><g><g><g filter="url(#dnsla)"><path fill="none" d="M96.6 1.828L83.896 25.823v12.701h-9.53V25.823L71.41 19.85v6.84c0 1.628.22 3.257.33 4.885h-6.793l-.327-3.474h-.11c-1.534 2.604-3.617 3.908-6.791 3.908-.658 0-1.206 0-1.752-.11-.22 4.778-1.206 10.098-7.23 10.098-2.847 0-4.818-.868-6.134-3.365h-.109v2.824h-6.9v-5.322c-1.094.544-2.41.978-3.833 1.302-2.737.544-6.135.98-10.078.98-17.084 0-19.276-4.995-19.276-12.16 0-6.19 1.862-11.509 19.276-11.509 4.162 0 7.449.325 9.97.868 1.53.327 2.847.651 3.94 1.194V4.544h7.228v13.569h.11c1.534-2.17 3.288-2.931 5.916-2.931 2.19 0 3.614.652 4.71 1.737 2.518-1.954 6.572-2.063 10.734-1.954v-2.062c0-2.172-.33-3.8-2.958-3.8-2.629 0-2.74 1.954-2.74 4.017h-7.227c0-3.15.985-5.212 2.739-6.297 1.641-1.304 4.051-1.738 6.788-1.738 1.206 0 2.302.11 3.287.217L62.43 1.828h10.404l6.79 15.526 7.339-15.526zm-80.83 22.15h12.048c0-2.173.218-5.322-6.135-5.322-6.022 0-5.913 3.476-5.913 5.321zm19.823 6.187V27.56H15.77c0 2.713.11 6.73 5.913 6.73 4.71 0 5.697-2.171 5.697-4.124zm10.188-10.531c-2.96 0-2.96 3.583-2.96 8.685 0 6.514.44 9.228 2.96 9.228 2.629 0 3.066-2.714 3.066-9.228 0-5.102.109-8.685-3.066-8.685zm18.51-.651c-3.616.216-6.353-.11-6.353 4.451 0 1.846.329 4.125 2.737 4.125 4.272 0 3.616-5.754 3.616-8.576z" mask="url(&quot;#dnslb&quot;)"/><path fill="#fff" d="M96.6 1.828L83.896 25.823v12.701h-9.53V25.823L71.41 19.85v6.84c0 1.628.22 3.257.33 4.885h-6.793l-.327-3.474h-.11c-1.534 2.604-3.617 3.908-6.791 3.908-.658 0-1.206 0-1.752-.11-.22 4.778-1.206 10.098-7.23 10.098-2.847 0-4.818-.868-6.134-3.365h-.109v2.824h-6.9v-5.322c-1.094.544-2.41.978-3.833 1.302-2.737.544-6.135.98-10.078.98-17.084 0-19.276-4.995-19.276-12.16 0-6.19 1.862-11.509 19.276-11.509 4.162 0 7.449.325 9.97.868 1.53.327 2.847.651 3.94 1.194V4.544h7.228v13.569h.11c1.534-2.17 3.288-2.931 5.916-2.931 2.19 0 3.614.652 4.71 1.737 2.518-1.954 6.572-2.063 10.734-1.954v-2.062c0-2.172-.33-3.8-2.958-3.8-2.629 0-2.74 1.954-2.74 4.017h-7.227c0-3.15.985-5.212 2.739-6.297 1.641-1.304 4.051-1.738 6.788-1.738 1.206 0 2.302.11 3.287.217L62.43 1.828h10.404l6.79 15.526 7.339-15.526zm-80.83 22.15h12.048c0-2.173.218-5.322-6.135-5.322-6.022 0-5.913 3.476-5.913 5.321zm19.823 6.187V27.56H15.77c0 2.713.11 6.73 5.913 6.73 4.71 0 5.697-2.171 5.697-4.124zm10.188-10.531c-2.96 0-2.96 3.583-2.96 8.685 0 6.514.44 9.228 2.96 9.228 2.629 0 3.066-2.714 3.066-9.228 0-5.102.109-8.685-3.066-8.685zm18.51-.651c-3.616.216-6.353-.11-6.353 4.451 0 1.846.329 4.125 2.737 4.125 4.272 0 3.616-5.754 3.616-8.576z"/></g><path fill="#5a5a5a" d="M96.6 1.828L83.896 25.823v12.701h-9.53V25.823L71.41 19.85v6.84c0 1.628.22 3.257.33 4.885h-6.793l-.327-3.474h-.11c-1.534 2.604-3.617 3.908-6.791 3.908-.658 0-1.206 0-1.752-.11-.22 4.778-1.206 10.098-7.23 10.098-2.847 0-4.818-.868-6.134-3.365h-.109v2.824h-6.9v-5.322c-1.094.544-2.41.978-3.833 1.302-2.737.544-6.135.98-10.078.98-17.084 0-19.276-4.995-19.276-12.16 0-6.19 1.862-11.509 19.276-11.509 4.162 0 7.449.325 9.97.868 1.53.327 2.847.651 3.94 1.194V4.544h7.228v13.569h.11c1.534-2.17 3.288-2.931 5.916-2.931 2.19 0 3.614.652 4.71 1.737 2.518-1.954 6.572-2.063 10.734-1.954v-2.062c0-2.172-.33-3.8-2.958-3.8-2.629 0-2.74 1.954-2.74 4.017h-7.227c0-3.15.985-5.212 2.739-6.297 1.641-1.304 4.051-1.738 6.788-1.738 1.206 0 2.302.11 3.287.217L62.43 1.828h10.404l6.79 15.526 7.339-15.526zm-80.83 22.15h12.048c0-2.173.218-5.322-6.135-5.322-6.022 0-5.913 3.476-5.913 5.321zm19.823 6.187V27.56H15.77c0 2.713.11 6.73 5.913 6.73 4.71 0 5.697-2.171 5.697-4.124zm10.188-10.531c-2.96 0-2.96 3.583-2.96 8.685 0 6.514.44 9.228 2.96 9.228 2.629 0 3.066-2.714 3.066-9.228 0-5.102.109-8.685-3.066-8.685zm18.51-.651c-3.616.216-6.353-.11-6.353 4.451 0 1.846.329 4.125 2.737 4.125 4.272 0 3.616-5.754 3.616-8.576z"/><path fill-opacity=".25" d="M0 45V-2h99v47zM86.962 2.828l-7.338 15.526-6.79-15.526H62.428l1.751 3.474c-.985-.108-2.08-.217-3.287-.217-2.737 0-5.147.434-6.788 1.738-1.754 1.085-2.74 3.148-2.74 6.297h7.229c0-2.063.11-4.017 2.739-4.017s2.958 1.628 2.958 3.8v2.062c-4.162-.109-8.216 0-10.734 1.954-1.096-1.085-2.52-1.737-4.71-1.737-2.628 0-4.382.76-5.915 2.93h-.11V5.545h-7.229V17.81c-1.093-.543-2.41-.867-3.94-1.194-2.521-.543-5.808-.868-9.97-.868-17.414 0-19.276 5.32-19.276 11.509 0 7.165 2.192 12.16 19.276 12.16 3.943 0 7.34-.436 10.078-.98 1.422-.324 2.739-.758 3.832-1.302v5.322h6.901v-2.824h.109c1.316 2.497 3.287 3.365 6.134 3.365 6.024 0 7.01-5.32 7.23-10.097.546.11 1.094.11 1.752.11 3.174 0 5.257-1.305 6.79-3.909h.11l.328 3.474h6.792c-.11-1.628-.329-3.257-.329-4.885v-6.84l2.956 5.972v12.701h9.53V26.823L96.6 2.828zM15.77 24.978c0-1.846-.109-5.322 5.913-5.322 6.353 0 6.135 3.15 6.135 5.321zm11.61 6.187c0 1.953-.987 4.125-5.697 4.125-5.803 0-5.913-4.018-5.913-6.731h19.823v2.606zm21.467-1.846c0 6.514-.437 9.228-3.066 9.228-2.52 0-2.96-2.714-2.96-9.228 0-5.102 0-8.685 2.96-8.685 3.175 0 3.066 3.583 3.066 8.685zm15.444-9.336c0 2.822.656 8.576-3.616 8.576-2.408 0-2.737-2.28-2.737-4.125 0-4.56 2.737-4.235 6.353-4.451z" filter="url(#dnslc)" mask="url(&quot;#dnsld&quot;)"/></g></g></svg>