<svg xmlns="http://www.w3.org/2000/svg" width="30" height="30" viewBox="0 0 30 30"><g><g><path fill="#38548f" d="M15.557 22.313h-3.22v-7.91h-1.33v-2.405h1.33v-.38c0-.865.17-1.663.51-2.394.339-.731.839-1.274 1.5-1.63a4.465 4.465 0 0 1 2.145-.532c.554 0 1.115.07 1.683.21l-.104 2.511a3.438 3.438 0 0 0-1.039-.148c-.478 0-.846.164-1.106.49-.26.328-.39.776-.39 1.346v.527h2.057v2.405h-2.036zM0 15c0 8.284 6.614 15 14.772 15 8.16 0 14.773-6.716 14.773-15 0-8.284-6.614-15-14.773-15C6.614 0 0 6.716 0 15z"/></g></g></svg>