<svg xmlns="http://www.w3.org/2000/svg" width="42" height="60" viewBox="0 0 42 60"><g><g><path fill="#7d8f9b" d="M28 17.646v21.177L42 52.94c0 3.898-3.134 7.058-7 7.058H7c-3.866 0-7-3.16-7-7.058l14-14.118V17.646c-2.233 0-9.233-7.059-7-7.059h28c2.233 0-4.767 7.059-7 7.059zm1.75-10.588c-.967 0-1.75-.79-1.75-1.765 0-.975.783-1.764 1.75-1.764.966 0 1.75.79 1.75 1.764 0 .975-.784 1.765-1.75 1.765zm-7-3.53c-.967 0-1.75-.79-1.75-1.764S21.783 0 22.75 0c.966 0 1.75.79 1.75 1.765 0 .975-.784 1.765-1.75 1.765zM14 7.059c-1.933 0-3.5-1.58-3.5-3.53C10.5 1.58 12.067 0 14 0s3.5 1.58 3.5 3.53c0 1.949-1.567 3.529-3.5 3.529z"/></g></g></svg>