<svg xmlns="http://www.w3.org/2000/svg" width="30" height="30" viewBox="0 0 30 30"><g><g><path fill="#2686b9" d="M15.165 30C7.007 30 .393 23.284.393 15c0-8.284 6.614-15 14.772-15 8.159 0 14.773 6.716 14.773 15 0 8.284-6.614 15-14.773 15zM10.627 22.7V11.38h-3.48v11.318zM8.887 6.45c-1.122 0-1.855.764-1.832 1.782-.023.972.71 1.759 1.809 1.759 1.144 0 1.877-.787 1.877-1.759-.023-1.018-.733-1.782-1.854-1.782zm4.532 16.248h3.48v-6.527c0-.324.046-.671.137-.88.23-.648.802-1.32 1.763-1.32 1.26 0 1.763.996 1.763 2.454V22.7h3.48v-6.712c0-3.333-1.717-4.86-4.007-4.86-1.854 0-2.999 1.087-3.457 1.805h-.068l-.16-1.551h-3.023c.046.995.092 2.198.092 3.61z"/></g></g></svg>