<svg xmlns="http://www.w3.org/2000/svg" width="49" height="42" viewBox="0 0 49 42"><defs><mask id="w5fab" width="2" height="2" x="-1" y="-1"><path fill="#fff" d="M2 1h45v38H2z"/><path d="M47.001 38.937h-6.684s-.285-13.057-1.73-19.563c-1.445-6.506-3.048-13.021-5.333-13.947-1.016 0-4.156 7.845-4.764 21.527-.313 7.287-.405 9.86-.405 9.86h-7.17s-.283-11.752-.921-15.478c-.638-3.726-1.638-14.08-4.212-15.883-2.419 0-5.722 12.997-6.374 21.3-.651 8.305-.663 12.248-.663 12.248H1.999s.221-15.41 3.595-24.523 6.094-13.445 10.02-13.445c3.924 0 6.747 4.956 8.882 11.332 0 0 3.34-11.366 8.882-11.366 5.543 0 12.546 11.027 13.623 37.938z"/></mask><filter id="w5faa" width="65" height="59" x="-8" y="-9" filterUnits="userSpaceOnUse"><feOffset dy="1" in="SourceGraphic" result="FeOffset1052Out"/><feGaussianBlur in="FeOffset1052Out" result="FeGaussianBlur1053Out" stdDeviation="0 0"/></filter><filter id="w5fac" width="200%" height="200%" x="-50%" y="-50%"><feGaussianBlur in="SourceGraphic" result="FeGaussianBlur1058Out" stdDeviation="1 1"/></filter><mask id="w5fad"><path fill="#fff" d="M47.001 38.937h-6.684s-.285-13.057-1.73-19.563c-1.445-6.506-3.048-13.021-5.333-13.947-1.016 0-4.156 7.845-4.764 21.527-.313 7.287-.405 9.86-.405 9.86h-7.17s-.283-11.752-.921-15.478c-.638-3.726-1.638-14.08-4.212-15.883-2.419 0-5.722 12.997-6.374 21.3-.651 8.305-.663 12.248-.663 12.248H1.999s.221-15.41 3.595-24.523 6.094-13.445 10.02-13.445c3.924 0 6.747 4.956 8.882 11.332 0 0 3.34-11.366 8.882-11.366 5.543 0 12.546 11.027 13.623 37.938z"/></mask></defs><g><g><g filter="url(#w5faa)"><path fill="none" d="M47.001 38.937h-6.684s-.285-13.057-1.73-19.563c-1.445-6.506-3.048-13.021-5.333-13.947-1.016 0-4.156 7.845-4.764 21.527-.313 7.287-.405 9.86-.405 9.86h-7.17s-.283-11.752-.921-15.478c-.638-3.726-1.638-14.08-4.212-15.883-2.419 0-5.722 12.997-6.374 21.3-.651 8.305-.663 12.248-.663 12.248H1.999s.221-15.41 3.595-24.523 6.094-13.445 10.02-13.445c3.924 0 6.747 4.956 8.882 11.332 0 0 3.34-11.366 8.882-11.366 5.543 0 12.546 11.027 13.623 37.938z" mask="url(&quot;#w5fab&quot;)"/><path fill="#fff" d="M47.001 38.937h-6.684s-.285-13.057-1.73-19.563c-1.445-6.506-3.048-13.021-5.333-13.947-1.016 0-4.156 7.845-4.764 21.527-.313 7.287-.405 9.86-.405 9.86h-7.17s-.283-11.752-.921-15.478c-.638-3.726-1.638-14.08-4.212-15.883-2.419 0-5.722 12.997-6.374 21.3-.651 8.305-.663 12.248-.663 12.248H1.999s.221-15.41 3.595-24.523 6.094-13.445 10.02-13.445c3.924 0 6.747 4.956 8.882 11.332 0 0 3.34-11.366 8.882-11.366 5.543 0 12.546 11.027 13.623 37.938z"/></g><path fill="#5a5a5a" d="M47.001 38.937h-6.684s-.285-13.057-1.73-19.563c-1.445-6.506-3.048-13.021-5.333-13.947-1.016 0-4.156 7.845-4.764 21.527-.313 7.287-.405 9.86-.405 9.86h-7.17s-.283-11.752-.921-15.478c-.638-3.726-1.638-14.08-4.212-15.883-2.419 0-5.722 12.997-6.374 21.3-.651 8.305-.663 12.248-.663 12.248H1.999s.221-15.41 3.595-24.523 6.094-13.445 10.02-13.445c3.924 0 6.747 4.956 8.882 11.332 0 0 3.34-11.366 8.882-11.366 5.543 0 12.546 11.027 13.623 37.938z"/><path fill-opacity=".25" d="M0 42V-2h49v44zM33.378 1.999c-5.543 0-8.882 11.366-8.882 11.366-2.135-6.376-4.958-11.332-8.883-11.332-3.925 0-6.645 4.332-10.019 13.445C2.22 24.592 2 40.001 2 40.001h6.746s.012-3.943.663-12.247c.652-8.304 3.955-21.301 6.374-21.301 2.574 1.803 3.574 12.157 4.212 15.883.638 3.726.92 15.479.92 15.479h7.17s.093-2.574.406-9.861c.608-13.682 3.748-21.527 4.764-21.527 2.285.926 3.888 7.44 5.333 13.947 1.445 6.506 1.73 19.563 1.73 19.563H47C45.924 13.026 38.921 2 33.378 2z" filter="url(#w5fac)" mask="url(&quot;#w5fad&quot;)"/></g></g></svg>