<svg xmlns="http://www.w3.org/2000/svg" width="16" height="24" viewBox="0 0 16 24"><defs><mask id="dxe7b" width="2" height="2" x="-1" y="-1"><path fill="#fff" d="M2 1h12v20H2z"/><path d="M13.27 9.032L6.278 1.765C4.026-.575.516 3.027 2.766 5.365l5.293 5.498-5.34 5.75c-2.207 2.377 1.3 5.982 3.512 3.6l7.04-7.582c.938-1.01.968-2.594 0-3.6z"/></mask><filter id="dxe7a" width="32" height="41" x="-8" y="-9" filterUnits="userSpaceOnUse"><feOffset dy="1" in="SourceGraphic" result="FeOffset1048Out"/><feGaussianBlur in="FeOffset1048Out" result="FeGaussianBlur1049Out" stdDeviation="0 0"/></filter><filter id="dxe7c" width="200%" height="200%" x="-50%" y="-50%"><feGaussianBlur in="SourceGraphic" result="FeGaussianBlur1054Out" stdDeviation="1 1"/></filter><mask id="dxe7d"><path fill="#fff" d="M13.27 9.032L6.278 1.765C4.026-.575.516 3.027 2.766 5.365l5.293 5.498-5.34 5.75c-2.207 2.377 1.3 5.982 3.512 3.6l7.04-7.582c.938-1.01.968-2.594 0-3.6z"/></mask></defs><g><g><g filter="url(#dxe7a)"><path fill="none" d="M13.27 9.032L6.278 1.765C4.026-.575.516 3.027 2.766 5.365l5.293 5.498-5.34 5.75c-2.207 2.377 1.3 5.982 3.512 3.6l7.04-7.582c.938-1.01.968-2.594 0-3.6z" mask="url(&quot;#dxe7b&quot;)"/><path fill="#fff" d="M13.27 9.032L6.278 1.765C4.026-.575.516 3.027 2.766 5.365l5.293 5.498-5.34 5.75c-2.207 2.377 1.3 5.982 3.512 3.6l7.04-7.582c.938-1.01.968-2.594 0-3.6z"/></g><path fill="#4c4f51" d="M13.27 9.032L6.278 1.765C4.026-.575.516 3.027 2.766 5.365l5.293 5.498-5.34 5.75c-2.207 2.377 1.3 5.982 3.512 3.6l7.04-7.582c.938-1.01.968-2.594 0-3.6z"/><path fill-opacity=".51" d="M0 24V-2h16v26zm13.27-13.968L6.278 2.765C4.026.425.516 4.027 2.766 6.365l5.293 5.498-5.34 5.75c-2.207 2.377 1.3 5.982 3.512 3.6l7.04-7.582c.938-1.01.968-2.594 0-3.6z" filter="url(#dxe7c)" mask="url(&quot;#dxe7d&quot;)"/></g></g></svg>