<svg xmlns="http://www.w3.org/2000/svg" width="16" height="13" viewBox="0 0 16 13"><defs><mask id="4xqpb" width="2" height="2" x="-1" y="-1"><path fill="#fff" d="M0 0h16v12H0z"/><path d="M14.998 9.969H1.002a1.001 1.001 0 0 1-1.002-1V1c0-.552.449-1 1.002-1h13.996C15.551 0 16 .448 16 1v7.969c0 .552-.449 1-1.002 1zM14 1H2v8h12zm-2.287 10l-.842.654c-.265.207-1.49.346-2.78.346-1.29 0-2.528-.14-2.811-.346L4.379 11z"/></mask><filter id="4xqpa" width="36" height="33" x="-10" y="-10" filterUnits="userSpaceOnUse"><feOffset dy="1" in="SourceGraphic" result="FeOffset1032Out"/><feGaussianBlur in="FeOffset1032Out" result="FeGaussianBlur1033Out" stdDeviation="0 0"/></filter></defs><g><g><g filter="url(#4xqpa)"><path fill="none" d="M14.998 9.969H1.002a1.001 1.001 0 0 1-1.002-1V1c0-.552.449-1 1.002-1h13.996C15.551 0 16 .448 16 1v7.969c0 .552-.449 1-1.002 1zM14 1H2v8h12zm-2.287 10l-.842.654c-.265.207-1.49.346-2.78.346-1.29 0-2.528-.14-2.811-.346L4.379 11z" mask="url(&quot;#4xqpb&quot;)"/><path fill-opacity=".08" d="M14.998 9.969H1.002a1.001 1.001 0 0 1-1.002-1V1c0-.552.449-1 1.002-1h13.996C15.551 0 16 .448 16 1v7.969c0 .552-.449 1-1.002 1zM14 1H2v8h12zm-2.287 10l-.842.654c-.265.207-1.49.346-2.78.346-1.29 0-2.528-.14-2.811-.346L4.379 11z"/></g><path fill="#fff" d="M14.998 9.969H1.002a1.001 1.001 0 0 1-1.002-1V1c0-.552.449-1 1.002-1h13.996C15.551 0 16 .448 16 1v7.969c0 .552-.449 1-1.002 1zM14 1H2v8h12zm-2.287 10l-.842.654c-.265.207-1.49.346-2.78.346-1.29 0-2.528-.14-2.811-.346L4.379 11z"/></g></g></svg>