<svg xmlns="http://www.w3.org/2000/svg" width="35" height="62" viewBox="0 0 35 62"><g><g><path fill="#7d8f9b" d="M31.111 62H3.89A3.882 3.882 0 0 1 0 58.123V3.874A3.882 3.882 0 0 1 3.889 0H31.11A3.882 3.882 0 0 1 35 3.875v54.25a3.882 3.882 0 0 1-3.889 3.874zM17.5 58.123a1.94 1.94 0 0 0 1.944-1.937c0-1.07-.87-1.938-1.944-1.938a1.941 1.941 0 0 0-1.944 1.938c0 1.07.87 1.937 1.944 1.937zm3.889-54.25H13.61a1.94 1.94 0 0 0-1.944 1.938c0 1.07.87 1.937 1.944 1.937h7.778a1.941 1.941 0 0 0 1.944-1.937 1.94 1.94 0 0 0-1.944-1.937zm9.722 7.75H3.89v38.75H31.11z"/></g></g></svg>