<svg xmlns="http://www.w3.org/2000/svg" width="16" height="24" viewBox="0 0 16 24"><defs><mask id="oevrb" width="2" height="2" x="-1" y="-1"><path fill="#fff" d="M2 1h12v20H2z"/><path d="M2.73 9.032l6.992-7.267c2.252-2.34 5.762 1.262 3.512 3.6L7.94 10.863l5.34 5.75c2.207 2.377-1.3 5.982-3.512 3.6L2.73 12.63c-.938-1.01-.968-2.594 0-3.6z"/></mask><filter id="oevra" width="32" height="41" x="-8" y="-9" filterUnits="userSpaceOnUse"><feOffset dy="1" in="SourceGraphic" result="FeOffset1023Out"/><feGaussianBlur in="FeOffset1023Out" result="FeGaussianBlur1024Out" stdDeviation="0 0"/></filter><filter id="oevrc" width="200%" height="200%" x="-50%" y="-50%"><feGaussianBlur in="SourceGraphic" result="FeGaussianBlur1029Out" stdDeviation="1 1"/></filter><mask id="oevrd"><path fill="#fff" d="M2.73 9.032l6.992-7.267c2.252-2.34 5.762 1.262 3.512 3.6L7.94 10.863l5.34 5.75c2.207 2.377-1.3 5.982-3.512 3.6L2.73 12.63c-.938-1.01-.968-2.594 0-3.6z"/></mask></defs><g><g><g filter="url(#oevra)"><path fill="none" d="M2.73 9.032l6.992-7.267c2.252-2.34 5.762 1.262 3.512 3.6L7.94 10.863l5.34 5.75c2.207 2.377-1.3 5.982-3.512 3.6L2.73 12.63c-.938-1.01-.968-2.594 0-3.6z" mask="url(&quot;#oevrb&quot;)"/><path fill="#fff" d="M2.73 9.032l6.992-7.267c2.252-2.34 5.762 1.262 3.512 3.6L7.94 10.863l5.34 5.75c2.207 2.377-1.3 5.982-3.512 3.6L2.73 12.63c-.938-1.01-.968-2.594 0-3.6z"/></g><path fill="#4c4f51" d="M2.73 9.032l6.992-7.267c2.252-2.34 5.762 1.262 3.512 3.6L7.94 10.863l5.34 5.75c2.207 2.377-1.3 5.982-3.512 3.6L2.73 12.63c-.938-1.01-.968-2.594 0-3.6z"/><path fill-opacity=".51" d="M0 24V-2h16v26zm2.73-13.968c-.969 1.005-.94 2.59 0 3.599l7.04 7.582c2.211 2.382 5.718-1.223 3.511-3.6a25415.5 25415.5 0 0 0-5.34-5.75c1.765-1.832 3.53-3.665 5.293-5.498 2.25-2.338-1.26-5.94-3.512-3.6L2.73 10.032z" filter="url(#oevrc)" mask="url(&quot;#oevrd&quot;)"/></g></g></svg>