<svg xmlns="http://www.w3.org/2000/svg" width="66" height="60" viewBox="0 0 66 60"><g><g><path fill="#788a95" d="M45.107 42.8l-5.543 9.6-5.623-3.246c-.437.366-.888.713-1.355 1.033l1.682 6.277-10.708 2.869-1.689-6.301a17.728 17.728 0 0 1-1.6-.215l-3.247 5.622-9.6-5.543 3.264-5.654a17.81 17.81 0 0 1-.977-1.28l-6.277 1.682L.565 36.935l6.301-1.688c.045-.535.12-1.069.215-1.6L1.459 30.4 7 20.8l5.653 3.263c.392-.325.79-.64 1.206-.93l-1.689-6.3 10.709-2.87 1.681 6.277c.534.041 1.067.115 1.598.205l3.265-5.654 9.6 5.543-3.246 5.623c.348.413.68.838.986 1.279l6.302-1.689 2.869 10.708-6.277 1.682a17.854 17.854 0 0 1-.205 1.598zM28.612 27.024c-5.22-3.014-11.895-1.226-14.909 3.995-3.013 5.22-1.225 11.895 3.995 14.908 5.22 3.014 11.895 1.226 14.91-3.994 3.013-5.22 1.224-11.895-3.996-14.91zm-8.138 14.353a5.543 5.543 0 1 1 5.543-9.6 5.543 5.543 0 0 1-5.543 9.6zM60.68 3.865l3.987 5.423-3.176 2.335c.097.333.18.668.245 1.006l3.9.594-1.015 6.654-3.916-.597c-.155.287-.327.565-.51.838l2.336 3.176-5.423 3.987-2.348-3.194c-.315.09-.631.17-.95.231l-.595 3.9-6.654-1.014.597-3.916a10.798 10.798 0 0 1-.838-.51l-3.175 2.336-3.988-5.423 3.193-2.348a10.788 10.788 0 0 1-.223-.897l-3.915-.597 1.015-6.654 3.9.595c.153-.286.324-.565.504-.838l-2.349-3.194 5.423-3.987 2.335 3.176c.315-.093.632-.174.952-.237L50.59.795l6.654 1.014-.595 3.9c.286.154.565.325.838.505zM47.888 9.192a6.626 6.626 0 1 0 7.851 10.677 6.626 6.626 0 0 0-7.85-10.677zm5.998 8.024a3.365 3.365 0 1 1-3.988-5.422 3.365 3.365 0 0 1 3.988 5.422z"/></g></g></svg>