<svg width="0" height="0" class="hidden">
  <symbol xmlns="http://www.w3.org/2000/svg" viewBox="0 0 79 46" id="advantages-icon">
    <defs>
      <filter id="a" width="95" height="63" x="-8" y="-9" filterUnits="userSpaceOnUse">
        <feOffset dy="1" in="SourceGraphic" result="FeOffset1127Out"></feOffset>
        <feGaussianBlur in="FeOffset1127Out" result="FeGaussianBlur1128Out" stdDeviation="0 0"></feGaussianBlur>
      </filter>
      <filter id="c" width="200%" height="200%" x="-50%" y="-50%">
        <feGaussianBlur in="SourceGraphic" result="FeGaussianBlur1133Out" stdDeviation="1 1"></feGaussianBlur>
      </filter>
      <mask id="b" width="2" height="2" x="-1" y="-1">
        <path  d="M2 1h75v42H2z"></path>
        <path d="M76.968 22.224l-34.361 9.832L34.652 16c3.84-.636 7.442-.458 10.607.125l3.362 6.205 11.682-3.133s-14.17-9.906-31.142-5.061l9.456 19.068-34.414 9.84s-9.993-21.815 12.56-31.066l-4.358-8.857L23.1 1.913l3.607 7.278c.218-.037.41-.089.628-.123 37.171-6.286 49.632 13.156 49.632 13.156zM24.98 28.673l-5.132-10.43c-9.65 6.228-6.334 13.5-6.334 13.5z"></path>
      </mask>
      <mask id="d">
        <path  d="M76.968 22.224l-34.361 9.832L34.652 16c3.84-.636 7.442-.458 10.607.125l3.362 6.205 11.682-3.133s-14.17-9.906-31.142-5.061l9.456 19.068-34.414 9.84s-9.993-21.815 12.56-31.066l-4.358-8.857L23.1 1.913l3.607 7.278c.218-.037.41-.089.628-.123 37.171-6.286 49.632 13.156 49.632 13.156zM24.98 28.673l-5.132-10.43c-9.65 6.228-6.334 13.5-6.334 13.5z"></path>
      </mask>
    </defs>
    <g filter="url(#a)">
      <path  d="M76.968 22.224l-34.361 9.832L34.652 16c3.84-.636 7.442-.458 10.607.125l3.362 6.205 11.682-3.133s-14.17-9.906-31.142-5.061l9.456 19.068-34.414 9.84s-9.993-21.815 12.56-31.066l-4.358-8.857L23.1 1.913l3.607 7.278c.218-.037.41-.089.628-.123 37.171-6.286 49.632 13.156 49.632 13.156zM24.98 28.673l-5.132-10.43c-9.65 6.228-6.334 13.5-6.334 13.5z" mask="url(&amp;quot;#b&amp;quot;)"></path>
      <path  d="M76.968 22.224l-34.361 9.832L34.652 16c3.84-.636 7.442-.458 10.607.125l3.362 6.205 11.682-3.133s-14.17-9.906-31.142-5.061l9.456 19.068-34.414 9.84s-9.993-21.815 12.56-31.066l-4.358-8.857L23.1 1.913l3.607 7.278c.218-.037.41-.089.628-.123 37.171-6.286 49.632 13.156 49.632 13.156zM24.98 28.673l-5.132-10.43c-9.65 6.228-6.334 13.5-6.334 13.5z"></path>
    </g>
    <path  d="M76.968 22.224l-34.361 9.832L34.652 16c3.84-.636 7.442-.458 10.607.125l3.362 6.205 11.682-3.133s-14.17-9.906-31.142-5.061l9.456 19.068-34.414 9.84s-9.993-21.815 12.56-31.066l-4.358-8.857L23.1 1.913l3.607 7.278c.218-.037.41-.089.628-.123 37.171-6.286 49.632 13.156 49.632 13.156zM24.98 28.673l-5.132-10.43c-9.65 6.228-6.334 13.5-6.334 13.5z"></path>
    
  </symbol>
</svg>