<svg xmlns="http://www.w3.org/2000/svg" width="30" height="30" viewBox="0 0 30 30"><g><g><path fill="#32cdfb" d="M16.594 8.69c2.434-.852 3.772.728 3.772.728.243.183 2.13-.729 2.13-.729-.092.82-1.37 1.824-1.37 1.824.517.03 1.856-.608 1.825-.456-.03.152-1.672 1.701-1.672 1.701 0 5.075-3.134 7.476-3.134 7.476-5.84 4.68-11.351.863-11.351.863 2.902.365 4.8-1.386 4.8-1.386-2.683-.255-3.012-2.279-3.012-2.279 1.04.146 1.406-.09 1.406-.09-2.665-.603-2.574-3.301-2.574-3.301.858.529 1.387.401 1.387.401-2.409-1.823-.949-4.467-.949-4.467 2.117 3.19 6.899 3.519 6.899 3.519-.456-2.917 1.843-3.805 1.843-3.805zM.33 15c0 8.284 6.614 15 14.773 15 8.158 0 14.772-6.716 14.772-15 0-8.284-6.614-15-14.772-15C6.944 0 .33 6.716.33 15z"/></g></g></svg>