<svg xmlns="http://www.w3.org/2000/svg" width="26" height="21" viewBox="0 0 26 21"><g><g><path fill="#00aced" d="M12.805 6.49S5.111 5.965 1.705.86c0 0-2.35 4.23 1.526 7.147 0 0-.851.204-2.232-.642 0 0-.146 4.318 4.141 5.28 0 0-.587.38-2.261.146 0 0 .529 3.239 4.846 3.647 0 0-3.055 2.8-7.724 2.217 0 0 8.87 6.107 18.267-1.38 0 0 5.042-3.842 5.042-11.962 0 0 2.643-2.48 2.692-2.722.049-.243-2.105.778-2.937.729 0 0 2.056-1.605 2.202-2.917 0 0-3.034 1.458-3.426 1.167 0 0-2.154-2.529-6.07-1.167 0 0-3.7 1.42-2.966 6.087z"/></g></g></svg>