<svg xmlns="http://www.w3.org/2000/svg" width="20" height="20" viewBox="0 0 20 20"><g><g><path fill="#f9993c" d="M16.189 20c.358-4.258-1.077-8.633-4.325-11.883C8.617 4.867 4.246 3.432-.009 3.79V.113c5.272-.61 10.75 1.088 14.784 5.124C18.801 9.265 20.5 14.734 19.9 20zM.945 19.107a3.145 3.145 0 0 1 .01-4.446 3.14 3.14 0 0 1 4.444-.01 3.145 3.145 0 0 1-.01 4.446 3.13 3.13 0 0 1-2.01.905H2.94a3.1 3.1 0 0 1-1.995-.895zM7.38 13.87C5.36 11.85 2.63 11.02-.01 11.293V7.58c3.655-.538 7.5.581 10.306 3.388 2.48 2.48 3.638 5.776 3.506 9.033h-3.79c-.077-2.23-.938-4.433-2.634-6.131z"/></g></g></svg>